/* XPM */
static char *_6c8c927b44c407d9f9bcff3b31dce36[] = {
/* columns rows colors chars-per-pixel */
"32 32 108 2 ",
"   c #010100",
".  c #090700",
"X  c #100E00",
"o  c #151200",
"O  c #191601",
"+  c #1E1A00",
"@  c #221D01",
"#  c #252001",
"$  c #2C2601",
"%  c #2F2901",
"&  c #322B01",
"*  c #373001",
"=  c #3C3401",
"-  c #433A01",
";  c #493F01",
":  c #4D4201",
">  c #514602",
",  c #554A02",
"<  c #594E02",
"1  c #5D5101",
"2  c #635601",
"3  c #665901",
"4  c #6B5D01",
"5  c #6F6002",
"6  c #736402",
"7  c #7C6C01",
"8  c #806F02",
"9  c #837202",
"0  c #887602",
"q  c #8C7A02",
"w  c #927E02",
"e  c #968202",
"r  c #9A8601",
"t  c #9E8A01",
"y  c #A38D02",
"u  c #A79102",
"i  c #A99301",
"p  c #AF9801",
"a  c #B39C01",
"s  c #BAA302",
"d  c #BCAA2E",
"f  c #C0A700",
"g  c #C4AB01",
"h  c #C9AE01",
"j  c #CDB201",
"k  c #CDB40B",
"l  c #D3B701",
"z  c #D5BB03",
"x  c #DBBE01",
"c  c #C0AA15",
"v  c #D0BD3D",
"b  c #DDC101",
"n  c #E2C400",
"m  c #E7C900",
"M  c #EBCC01",
"N  c #EDD106",
"B  c #F3D302",
"V  c #FEDD00",
"C  c #F4D509",
"Z  c #F6D90E",
"A  c #FEDE0A",
"S  c #EACD14",
"D  c #F2D413",
"F  c #F6D812",
"G  c #FBDD14",
"H  c #F6DD1F",
"J  c #FCDF1C",
"K  c #FFE004",
"L  c #FEE01D",
"P  c #DCC42B",
"I  c #EFD520",
"U  c #F2D720",
"Y  c #F3DB20",
"T  c #EAD234",
"R  c #EAD33C",
"E  c #FEE123",
"W  c #FEE22E",
"Q  c #FEE333",
"!  c #FEE43A",
"~  c #F4DC41",
"^  c #FEE545",
"/  c #FEE64C",
"(  c #FEE754",
")  c #FEE960",
"_  c #FEEB6C",
"`  c #FEEB72",
"'  c #FEED7C",
"]  c #FEEE85",
"[  c #FEEF8D",
"{  c #FEEF92",
"}  c #FEF097",
"|  c #FEF19C",
" . c #FEF2A6",
".. c #FEF4AD",
"X. c #FEF4B2",
"o. c #FEF6BB",
"O. c #FFF8BB",
"+. c #FEF6C3",
"@. c #FFF8C1",
"#. c #FEF7CA",
"$. c #FFF8CA",
"%. c #FEF8D3",
"&. c #FEF9DB",
"*. c #FEFBE4",
"=. c #FEFCEB",
"-. c #FEFDF4",
";. c #FEFEFE",
":. c None",
/* pixels */
":.:.:.:.:.:.:.:.:.:.:.:.:.:.:.:.:.:.:.:.:.:.:.:.:.:.:.:.:.:.:.:.",
":.:.:.:.:.:.:.:.:.:.:.:.:.:.:.:.:.:.:.:.:.:.:.:.:.:.:.:.:.:.:.:.",
":.:.:.:.:.:.:.:.:.:.:.:.G G D S S D G G :.:.:.:.:.:.:.:.:.:.:.:.",
":.:.:.:.:.:.:.:.:.:.B j r 1 * $ $ = 4 e h B c :.:.:.:.:.:.:.:.:.",
":.:.:.:.:.:.:.:.h h < = 9 1       + 7 - O 4 s z :.:.:.:.:.:.:.:.",
":.:.:.:.:.:.:.n 9 < = @ 0 3 % = = ; 9 $ , 7 O 9 n :.:.:.:.:.:.:.",
":.:.:.:.:.:.n 8 , * 9 2 y v R C ~ T l t 9 6 $ 7 6 n :.:.:.:.:.:.",
":.:.:.:.:.n 2 < t , r M A @.+.J %...K K M r 5 e # 6 n :.:.:.:.:.",
":.:.:.:.j y - % 3 h V V A +.#.Q &.o.A V V V h : 9 q r j :.:.:.:.",
":.:.:.:.h , q 4 a K V V ! %.-.&.-.-.+.] Q V V g 7 7 $ h s :.:.:.",
":.:.:.C 7 $ > y V V A ` *.;.;.;.;.;.;.;.*.) V V t = 6 0 C :.:.:.",
":.:.:.x 7 y 3 m V V ` -.;.;.+.' _ [ &.;.;.=.^ V M 7 9 > z :.:.:.",
":.:.G u > 9 u V V W *.;.;.{ G V V V W %.;.-.} V V t % $ t Z :.:.",
":.:.J 9 : ; h K V ' ;.;.%.J V V V V V / ` ^ E V V j 6 e w Z :.:.",
":.:.G 7 u 8 m V V X.;.;. .V V V V V V V V V V V V M 2 4 1 Z :.:.",
":.:.F - + , M V A #.;.;.{ V V V V V V V V V V V V B 1 : 2 D :.:.",
":.:.D 3 e 7 M V Z +.;.;.} V V V V V V V V V V V V M 6 3 3 D :.:.",
":.:.J 4 , < m V V ..;.;.X.V V V V V V W ( E A V V M , $ : F :.:.",
":.:.G 7 @ = h V V _ ;.;.=.Q V V V V A ..;.*.{ V V j 7 e e A :.:.",
":.:.L a 6 9 w V V E %.;.;.o.Q A A G ' -.;.;.` V V q - 4 p G :.:.",
":.:.:.n > $ % m V V / *.;.;.=.o...%.;.;.;.X.G V M *   @ x :.:.:.",
":.:.:.B 6     8 V V V ^ o.;.;.;.;.;.;.=.| J V V 0     4 B :.:.:.",
":.:.:.:.l @   X i V V V J #.=.X.-.&.' ! A V V s %   + j :.:.:.:.",
":.:.:.:.s y . & 1 p V V A +.+.L %.X.V V V V i , q - e h :.:.:.:.",
":.:.:.:.:.n 7 7 e ; 9 b A O.o.L $...K V n q , @ < e n :.:.:.:.:.",
":.:.:.:.:.:.n y : O 6 = 0 d P N T P s q : > u % 6 m :.:.:.:.:.:.",
":.:.:.:.:.:.:.x e : 4 - 0 - - 2 - 2 : < r O : i b :.:.:.:.:.:.:.",
":.:.:.:.:.:.:.:.s l 7 1 q * 1 q * y 9 % q 7 h k :.:.:.:.:.:.:.:.",
":.:.:.:.:.:.:.:.:.:.N b p 6 7 7 : q r y x B :.:.:.:.:.:.:.:.:.:.",
":.:.:.:.:.:.:.:.:.:.:.:.H H I I H I H J :.:.:.:.:.:.:.:.:.:.:.:.",
":.:.:.:.:.:.:.:.:.:.:.:.:.:.:.:.:.:.:.:.:.:.:.:.:.:.:.:.:.:.:.:.",
":.:.:.:.:.:.:.:.:.:.:.:.:.:.:.:.:.:.:.:.:.:.:.:.:.:.:.:.:.:.:.:."
};
