/* XPM */
static char *_e84536002cc4611edd30815f4eb7b23[] = {
/* columns rows colors chars-per-pixel */
"64 64 106 2 ",
"   c #010100",
".  c #080701",
"X  c #0C0B01",
"o  c #100E01",
"O  c #141201",
"+  c #191601",
"@  c #1D1901",
"#  c #221D01",
"$  c #262101",
"%  c #2A2501",
"&  c #2E2801",
"*  c #332C02",
"=  c #373002",
"-  c #3C3402",
";  c #403702",
":  c #433A02",
">  c #483F02",
",  c #4C4202",
"<  c #514602",
"1  c #554A02",
"2  c #594E02",
"3  c #5E5202",
"4  c #625602",
"5  c #665902",
"6  c #6B5D02",
"7  c #6F6003",
"8  c #736402",
"9  c #776802",
"0  c #7B6B02",
"q  c #7F7201",
"w  c #806F02",
"e  c #847302",
"r  c #897702",
"t  c #8C7A02",
"y  c #917E02",
"u  c #958202",
"i  c #9A8602",
"p  c #9D8903",
"a  c #A28D02",
"s  c #A69002",
"d  c #AB9502",
"f  c #AF9802",
"g  c #A5910A",
"h  c #B49C02",
"j  c #B89F02",
"k  c #A59215",
"l  c #BCA402",
"z  c #C1A701",
"x  c #C4AA02",
"c  c #C9AE01",
"v  c #CDB201",
"b  c #CFB801",
"n  c #C9B10F",
"m  c #D2B601",
"M  c #D5B901",
"N  c #DABD01",
"B  c #DDC101",
"V  c #E2C401",
"C  c #E7C800",
"Z  c #ECCC01",
"A  c #EED103",
"S  c #ECD50F",
"D  c #F3D401",
"F  c #F8D701",
"G  c #F7D900",
"H  c #FEDC00",
"J  c #FEDD0A",
"K  c #F4D910",
"L  c #FDDE11",
"P  c #FCDF1B",
"I  c #FFE000",
"U  c #FEE01D",
"Y  c #EDD921",
"T  c #F3DB20",
"R  c #FEE124",
"E  c #FEE229",
"W  c #FEE335",
"Q  c #FEE43B",
"!  c #FEE542",
"~  c #FEE64A",
"^  c #FEE754",
"/  c #FFEA53",
"(  c #FFEA5C",
")  c #FEE964",
"_  c #FEEB6C",
"`  c #FEEB73",
"'  c #FEEC7A",
"]  c #FEEE83",
"[  c #FEEF8B",
"{  c #FFF18B",
"}  c #FEF096",
"|  c #FEF19B",
" . c #FEF2A4",
".. c #FEF3AA",
"X. c #FEF4B4",
"o. c #FEF6BE",
"O. c #FEF6C3",
"+. c #FEF7CA",
"@. c #FEF8CE",
"#. c #FEF8D4",
"$. c #FEF9DA",
"%. c #FEFBE4",
"&. c #FEFBEC",
"*. c #FEFDF3",
"=. c #FEFEFE",
"-. c None",
/* pixels */
"-.-.-.-.-.-.-.-.-.-.-.-.-.-.-.-.-.-.-.-.-.-.-.-.-.-.-.-.-.-.-.-.-.-.-.-.-.-.-.-.-.-.-.-.-.-.-.-.-.-.-.-.-.-.-.-.-.-.-.-.-.-.-.-.",
"-.-.-.-.-.-.-.-.-.-.-.-.-.-.-.-.-.-.-.-.-.-.-.-.-.-.-.-.-.-.-.-.-.-.-.-.-.-.-.-.-.-.-.-.-.-.-.-.-.-.-.-.-.-.-.-.-.-.-.-.-.-.-.-.",
"-.-.-.-.-.-.-.-.-.-.-.-.-.-.-.-.-.-.-.-.-.-.-.-.-.-.-.-.-.-.-.-.-.-.-.-.-.-.-.-.-.-.-.-.-.-.-.-.-.-.-.-.-.-.-.-.-.-.-.-.-.-.-.-.",
"-.-.-.-.-.-.-.-.-.-.-.-.-.-.-.-.-.-.-.-.-.-.-.-.-.-.-.-.-.-.-.-.-.-.-.-.-.-.-.-.-.-.-.-.-.-.-.-.-.-.-.-.-.-.-.-.-.-.-.-.-.-.-.-.",
"-.-.-.-.-.-.-.-.-.-.-.-.-.-.-.-.-.-.-.-.-.-.-.-.-.-.J K H L J J J J J J J J -.-.-.-.-.-.-.-.-.-.-.-.-.-.-.-.-.-.-.-.-.-.-.-.-.-.",
"-.-.-.-.-.-.-.-.-.-.-.-.-.-.-.-.-.-.-.-.-.-.! J H H I H H H D Z D D D H I H H H H H -.-.-.-.-.-.-.-.-.-.-.-.-.-.-.-.-.-.-.-.-.-.",
"-.-.-.-.-.-.-.-.-.-.-.-.-.-.-.-.-.-.-.-.B H H I H N h t 5 , - = = = , 4 e f N D H H H C -.-.-.-.-.-.-.-.-.-.-.-.-.-.-.-.-.-.-.-.",
"-.-.-.-.-.-.-.-.-.-.-.-.-.-.-.-.-.-.f D H H N u , % .                   . % $ , y M H I D n -.-.-.-.-.-.-.-.-.-.-.-.-.-.-.-.-.-.",
"-.-.-.-.-.-.-.-.-.-.-.-.-.-.-.-.t Z I H c 7 # = 9 i t o               + a p u #   + 4 z H H Z u -.-.-.-.-.-.-.-.-.-.-.-.-.-.-.-.",
"-.-.-.-.-.-.-.-.-.-.-.-.-.-.-.z H I B 7 O     4 m , V ,               1 V # 5 &     % # 5 M I I v -.-.-.-.-.-.-.-.-.-.-.-.-.-.-.",
"-.-.-.-.-.-.-.-.-.-.-.-.-.-.V I H p * , =     @ m 3 l ,               & M e >     : m <   # u D I C -.-.-.-.-.-.-.-.-.-.-.-.-.-.",
"-.-.-.-.-.-.-.-.-.-.-.-.-.Z I Z 7 . @ x i . @ o f y 3 @ * , 4 6 6 4 , = < 8 = X 6 h M 6       4 V I D -.-.-.-.-.-.-.-.-.-.-.-.-.",
"-.-.-.-.-.-.-.-.-.-.-.-.D I B , X .   ; M 8 0 . = 5 a m Z F H H H H H Z m a 5 = 6 3 C 5   o 6 , > M I D -.-.-.-.-.-.-.-.-.-.-.-.",
"-.-.-.-.-.-.-.-.-.-.-.Z I N - , l h &   u e , t N F / { [ ^ H H ) { { Q H I H B y : 0 1 X 3 C d , & v I D -.-.-.-.-.-.-.-.-.-.-.",
"-.-.-.-.-.-.-.-.-.-.B I V ; O f 3 h y   % q V I H H | =.=.| H J O.=.=.` H H H H I C r # * y M g -   * M I C -.-.-.-.-.-.-.-.-.-.",
"-.-.-.-.-.-.-.-.-.z I A 1   O x s u 6 = l H H H H H | =.=.| H J O.=.=.` H H H H H H H c < 7 v 9   @ 1 , C H m -.-.-.-.-.-.-.-.-.",
"-.-.-.-.-.-.-.-.t H H 0 @ X   ; a 0 6 B I H H H H H | =.=.| H J o.=.=.` H H H H H H H H C 6 # . # s v * 6 F I p -.-.-.-.-.-.-.-.",
"-.-.-.-.-.-.-.-.Z I h & p 5 >     4 Z I H H H H H F | =.=.| L R O.=.=.' J H H H H H H H H D 7 % x m r a : a H D -.-.-.-.-.-.-.-.",
"-.-.-.-.-.-.-.f I C = 9 1 7 l X 2 Z H H H H H H H H | =.=.%.@.$.=.=.=.%.X.] ~ L H H H H H H D 7 3 7 N l = % B I l -.-.-.-.-.-.-.",
"-.-.-.-.-.-.-.D H t . e l u p : B H H H H H H H R ' %.=.=.=.=.=.=.=.=.=.=.=.*.+.` L H H H H H C , u p o     0 H H -.-.-.-.-.-.-.",
"-.-.-.-.-.-.Z H V $   # i a > l H H H H H H H ( @.=.=.=.=.=.=.=.=.=.=.=.=.=.=.=.=.o.Q H H H H H c * o X 3 2 % M H D -.-.-.-.-.-.",
"-.-.-.-.-.-.H I y ; - .     8 H H H H H H J ' *.=.=.=.=.=.=.=.=.=.=.=.=.=.=.=.=.=.=.%.~ H H H H H t . 0 N s 5 0 H H -.-.-.-.-.-.",
"-.-.-.-.-.-.H Z - y B a 2 % V H H H H H H ' *.=.=.=.=.=.=.=.%.+.o.O.#.*.=.=.=.=.=.=.=.$.W H H H H Z - a 0 = i ; V H T -.-.-.-.-.",
"-.-.-.-.-.D I l ; q p s e e H H H H H H ^ *.=.=.=.=.=.=.+.) R L J J P ~  .*.=.=.=.=.=.=...J H H H I u 1 x u < X d I D -.-.-.-.-.",
"-.-.-.-.-.H H 0 3 N N r = m H H H H H P +.=.=.=.=.=.=.} P H H H H H H H J _ *.=.=.=.=.=.*.~ H H H H V % & =     5 H H -.-.-.-.-.",
"-.-.-.-.-.H D ; . # 7 u 3 H H H H H H _ =.=.=.=.=.=. .J H H H H H H H H H H [ =.=.=.=.=.*.] H H H H H 6   O , % * Z H -.-.-.-.-.",
"-.-.-.-.L H N @ o . . X u H H H H H J O.=.=.=.=.=.&.W H H H H H H H H H H H E #.$.X.[ ( W L H H H H H d O f N h - c I A -.-.-.-.",
"-.-.-.-.L H j ; r a y + c H H H H H Q &.=.=.=.=.=...F H F H H H H H F H H H F E P J H H H H H H H H H M > l - u 6 a I J -.-.-.-.",
"-.-.-.-.L I u 5 x B j , V H H H H H ) =.=.=.=.=.=.` F H H H H H H H H H H H H H H H H H H H H H H H H D > y x N = e H J -.-.-.-.",
"-.-.-.-.L I q = l u e 1 D H H H H H [ =.=.=.=.=.=.~ H H H H H H H H H H H H H H H H H H H H H H H H H F < @ 3 =   7 H H -.-.-.-.",
"-.-.-.-.L H 8   X @ @ 1 H H H H H H  .=.=.=.=.=.*.Q H H H H H H H H H F H H H H H H H H H H H H H H H H 5       . 3 H J -.-.-.-.",
"-.-.-.-.L H 6     o * 3 H H H H H H  .=.=.=.=.=.*.W H H H H H H H H H H H H H H H H H H H H H H H H H H 6 3 u r r 5 H H -.-.-.-.",
"-.-.-.-.L H 6 . , l s 4 H H H H H F  .=.=.=.=.=.*.Q H H H H H H H H H H H H H H H H H H H H H H H H H H 6 0 d a u 5 H J -.-.-.-.",
"-.-.-.-.L H 8 6 V v 2 1 F H H H H H | =.=.=.=.=.*.~ H H H H H H H H H H H H H H H H H H H H H H H H H H 4 6 >   . 4 H H -.-.-.-.",
"-.-.-.-.L I r > e s 0 : D H H H H H ' =.=.=.=.=.=.) H H H H H H H H H H H H H J H H H H H H H H H H H F , O +     8 H J -.-.-.-.",
"-.-.-.-.L I a     # 1 & V H H H H H ^ =.=.=.=.=.=.} H H H H H H H F H H H H J  .X.` ! P H H H H H H H Z - 6 = + X t I F -.-.-.-.",
"-.-.-.-.L I l .     o X z H H H H H E %.=.=.=.=.=.@.P H H H H H H H H H H H Q *.=.=.*.#. .^ H H H H H v - x M v 4 f I F -.-.-.-.",
"-.-.-.-.K H V $ 1 - 7 , t I H H H H F  .=.=.=.=.=.=.` H H H H H H H H H F F  .=.=.=.=.=.=.[ H H H H H i > e ; y 3 v H J -.-.-.-.",
"-.-.-.-.-.H D 1 p * 4 s , D H H H H H ! *.=.=.=.=.=.%.~ H H H H H H H H H _ *.=.=.=.=.=.&.W H H H H F 2 # c m d 1 A H -.-.-.-.-.",
"-.-.-.-.-.H H r 8 a N t O x H H H H H J } =.=.=.=.=.=.%.` R H H H H H R ] *.=.=.=.=.=.=.| F H H H H M @   & 3 & 8 H H -.-.-.-.-.",
"-.-.-.-.-.H H c # 7 0 +   7 H H H H H H P O.=.=.=.=.=.=.=.#.| ` ) ` | $.=.=.=.=.=.=.=.#.R H H H H H e         . l H H -.-.-.-.-.",
"-.-.-.-.-.-.H D ,         + m H H H H H H E +.=.=.=.=.=.=.=.=.=.=.=.=.=.=.=.=.=.=.=.%.~ H H H H H N $         = Z H A -.-.-.-.-.",
"-.-.-.-.-.-.H H a .         3 F H H H H H H E ..=.=.=.=.=.=.=.=.=.=.=.=.=.=.=.=.=.#.~ F H H H H H 8           u I H -.-.-.-.-.-.",
"-.-.-.-.-.-.V H Z =         X a H H H H H H H L _ @.=.=.=.=.=.=.=.=.=.=.=.=.=.&.| E H H H H H H h o         % V H C -.-.-.-.-.-.",
"-.-.-.-.-.-.-.A I a .         # v H H H H H H H H U X.=.=.=.=.=.=.=.=.=.%.O.] W H H H H H H H N &           u H D -.-.-.-.-.-.-.",
"-.-.-.-.-.-.-.g I D 1           = N H H H H H H H H | =.=.X.^ _ $.=.=.} E J H H H H H H H H C > O O       ; Z I j -.-.-.-.-.-.-.",
"-.-.-.-.-.-.-.-.B I v #       . o : N H H H H H H H | =.=.} H H o.=.=.` F H H H H H H H H V < , c m ,   O l I Z -.-.-.-.-.-.-.-.",
"-.-.-.-.-.-.-.-.-.F H i .   # a f , = x H H H H H H | =.=.| H J o.=.=.` H H H H H H H H v ; . i 1 y p . r H H -.-.-.-.-.-.-.-.-.",
"-.-.-.-.-.-.-.-.-.s I H 8   0 v , f 4 # i D H H H H | =.=.| H J o.=.=.` H H H H H I F s * = X & - 0 8 4 D I h -.-.-.-.-.-.-.-.-.",
"-.-.-.-.-.-.-.-.-.-.c I A 3 4 t t v , o # < z F I H | =.=.| H J o.=.=.` H H H H H c 3 + * s o   7 8 4 Z I N -.-.-.-.-.-.-.-.-.-.",
"-.-.-.-.-.-.-.-.-.-.-.N I Z 5 0 v =   , t 1 # 4 h Z W ( ( W H H ! ( ( E H I A z 4 O $ l f s $     < V I F -.-.-.-.-.-.-.-.-.-.-.",
"-.-.-.-.-.-.-.-.-.-.-.-.B I Z 0 =     . 7 M &   o - 8 f M C A F D D V M f 0 - @ : % @ 0 M B 3   4 C I Z -.-.-.-.-.-.-.-.-.-.-.-.",
"-.-.-.-.-.-.-.-.-.-.-.-.-.M I F u @   & v 6   ; p y % . o $ = - ; = % # # X X s p 7 .   $ 7 , r D I V -.-.-.-.-.-.-.-.-.-.-.-.-.",
"-.-.-.-.-.-.-.-.-.-.-.-.-.-.z I I x , 2 h # . l t p s   X 7 t ;   % y 3 x - @ m B c %     - l H I v -.-.-.-.-.-.-.-.-.-.-.-.-.-.",
"-.-.-.-.-.-.-.-.-.-.-.-.-.-.-.i D I A p , . . f r p d   3 x r v # # N t B :   1 g l $ % y Z I H d -.-.-.-.-.-.-.-.-.-.-.-.-.-.-.",
"-.-.-.-.-.-.-.-.-.-.-.-.-.-.-.-.-.M H I C i ; - t y &   - 6 , N % . c p v 9   @ 3 3 y V I I B -.-.-.-.-.-.-.-.-.-.-.-.-.-.-.-.-.",
"-.-.-.-.-.-.-.-.-.-.-.-.-.-.-.-.-.-.q B H H D l 0 ; + . * t y 4   X i 6 6 2 - 8 h Z I H V k -.-.-.-.-.-.-.-.-.-.-.-.-.-.-.-.-.-.",
"-.-.-.-.-.-.-.-.-.-.-.-.-.-.-.-.-.-.-.-.b F H I I D N h u 0 8 3 3 5 0 u f m D H I I H B -.-.-.-.-.-.-.-.-.-.-.-.-.-.-.-.-.-.-.-.",
"-.-.-.-.-.-.-.-.-.-.-.-.-.-.-.-.-.-.-.-.-.-.-.S F H H I H H H H H H H H I H H H F -.-.-.-.-.-.-.-.-.-.-.-.-.-.-.-.-.-.-.-.-.-.-.",
"-.-.-.-.-.-.-.-.-.-.-.-.-.-.-.-.-.-.-.-.-.-.-.-.-.-.-.Y Y T T R R T T T T -.-.-.-.-.-.-.-.-.-.-.-.-.-.-.-.-.-.-.-.-.-.-.-.-.-.-.",
"-.-.-.-.-.-.-.-.-.-.-.-.-.-.-.-.-.-.-.-.-.-.-.-.-.-.-.-.-.-.-.-.-.-.-.-.-.-.-.-.-.-.-.-.-.-.-.-.-.-.-.-.-.-.-.-.-.-.-.-.-.-.-.-.",
"-.-.-.-.-.-.-.-.-.-.-.-.-.-.-.-.-.-.-.-.-.-.-.-.-.-.-.-.-.-.-.-.-.-.-.-.-.-.-.-.-.-.-.-.-.-.-.-.-.-.-.-.-.-.-.-.-.-.-.-.-.-.-.-.",
"-.-.-.-.-.-.-.-.-.-.-.-.-.-.-.-.-.-.-.-.-.-.-.-.-.-.-.-.-.-.-.-.-.-.-.-.-.-.-.-.-.-.-.-.-.-.-.-.-.-.-.-.-.-.-.-.-.-.-.-.-.-.-.-.",
"-.-.-.-.-.-.-.-.-.-.-.-.-.-.-.-.-.-.-.-.-.-.-.-.-.-.-.-.-.-.-.-.-.-.-.-.-.-.-.-.-.-.-.-.-.-.-.-.-.-.-.-.-.-.-.-.-.-.-.-.-.-.-.-."
};
