/* XPM */
static char *_b941de5ae2c45bfb60f4936f0c5561d[] = {
/* columns rows colors chars-per-pixel */
"16 16 143 2 ",
"   c #272200",
".  c #2B2500",
"X  c #352E00",
"o  c #3B3300",
"O  c #453C01",
"+  c #4B4100",
"@  c #584C00",
"#  c #584C01",
"$  c #5A4E00",
"%  c #5D5000",
"&  c #5E5102",
"*  c #605302",
"=  c #635600",
"-  c #645700",
";  c #675900",
":  c #665901",
">  c #675901",
",  c #675902",
"<  c #685A00",
"1  c #695B00",
"2  c #6B5D01",
"3  c #6D5E00",
"4  c #6D5F00",
"5  c #6E5F00",
"6  c #6F6000",
"7  c #716200",
"8  c #756602",
"9  c #796900",
"0  c #817002",
"q  c #827103",
"w  c #877401",
"e  c #897701",
"r  c #8A7700",
"t  c #8A7800",
"y  c #8B7900",
"u  c #8C7A00",
"i  c #8E7C08",
"p  c #917E00",
"a  c #927E00",
"s  c #937F00",
"d  c #8D7E1B",
"f  c #958100",
"g  c #988400",
"h  c #988401",
"j  c #9C8700",
"k  c #9A870A",
"l  c #90801B",
"z  c #AC9500",
"x  c #AC9501",
"c  c #B69E01",
"v  c #A89519",
"b  c #AD9919",
"n  c #AD9A1D",
"m  c #AE9A1D",
"M  c #BAA100",
"N  c #BBA61B",
"B  c #BAA51D",
"V  c #B19F22",
"C  c #B4A122",
"Z  c #CDB200",
"A  c #CEB300",
"S  c #C9B007",
"D  c #D3B700",
"F  c #D5B800",
"G  c #D4B907",
"H  c #C3AC19",
"J  c #C4AE1C",
"K  c #C5AF1C",
"L  c #CAB319",
"P  c #C2AE23",
"I  c #C9B421",
"U  c #C8B63D",
"Y  c #DAC11B",
"T  c #E8C900",
"R  c #E9C900",
"E  c #EBCB00",
"W  c #EBCC00",
"Q  c #F8D700",
"!  c #F9D903",
"~  c #FEDB00",
"^  c #FEDC00",
"/  c #FFDD00",
"(  c #FADA04",
")  c #FBDA05",
"_  c #F9D907",
"`  c #FEDC07",
"'  c #FFDE0A",
"]  c #FADC0F",
"[  c #FEDE11",
"{  c #FBDD16",
"}  c #FEDF16",
"|  c #FCDF1F",
" . c #DFC822",
".. c #E2C921",
"X. c #E3CB26",
"o. c #FEE021",
"O. c #FEE22A",
"+. c #FFE52F",
"@. c #FFE530",
"#. c #FFE636",
"$. c #D4C141",
"%. c #DFCB46",
"&. c #E0CB41",
"*. c #E2CE4C",
"=. c #E3D047",
"-. c #E4D252",
";. c #E8D452",
":. c #E3D15B",
">. c #FFE740",
",. c #FFE844",
"<. c #FEE857",
"1. c #FEE85A",
"2. c #FEE85C",
"3. c #EAD762",
"4. c #FFEA62",
"5. c #FFEB64",
"6. c #FFEB66",
"7. c #FFEC64",
"8. c #FFED78",
"9. c #FFEF78",
"0. c #FEEF8B",
"q. c #FFF082",
"w. c #FFF194",
"e. c #FEF1A0",
"r. c #FEF2A3",
"t. c #FEF4B2",
"y. c #FEF4B6",
"u. c #FFF6B6",
"i. c #FEF6BF",
"p. c #FEF7C6",
"a. c #FFF8C5",
"s. c #FFF8C6",
"d. c #FEF8D2",
"f. c #FFF9D3",
"g. c #FEF9DB",
"h. c #FEFAE1",
"j. c #FEFAE4",
"k. c #FEFBE8",
"l. c #FEFBE9",
"z. c #FEFBEA",
"x. c #FEFCEF",
"c. c #FEFEFE",
"v. c None",
/* pixels */
"v.v.v.v.v.v.v.v.v.v.v.v.v.v.v.v.",
"v.v.v.v.v.&.B d l B Y v.v.v.v.v.",
"v.v.v.v.e @ < . o @ & i v.v.v.v.",
"v.v.v.e , f $.;.3.G j , y v.v.v.",
"v.v.f & c ( q.s.f.6.{ M 8 a v.v.",
"v.=.9 h ( 8.l.p.y.z.i.o.h 6 &.v.",
"v.K 3 F #.x.e.[ ` <.e.@.D , H v.",
"v.m 3 R 6.c.<.^ ^ ^ ^ ^ R 2 b v.",
"v.m < R 7.c.2.^ ^ [ O.' W = v v.",
"v.K @ A +.z.t.o.} 0.j.>.Z , L v.",
"v.X.+ < ! 4.h.g.f.z.w.] 2 X  .v.",
"v.v.0   x Q 9.y.s.,._ z O 0 v.v.",
"v.v.v.h & w U *.:.S u @ a v.v.v.",
"v.v.v.v.y 3 = = 3 , 7 k v.v.v.v.",
"v.v.v.v.v.-.P C C I ..v.v.v.v.v.",
"v.v.v.v.v.v.v.v.v.v.v.v.v.v.v.v."
};
